<svg width="241" height="40" viewBox="0 0 241 40" fill="none" xmlns="http://www.w3.org/2000/svg">
<path d="M64.9768 32V9.44H69.9688V18.496H80.3048V9.44H85.3288V32H80.3048V22.624H69.9688V32H64.9768ZM97.7543 32.352C94.9383 32.352 92.741 31.5947 91.1623 30.08C89.5836 28.5653 88.7943 26.5067 88.7943 23.904C88.7943 22.2187 89.125 20.7467 89.7863 19.488C90.469 18.2293 91.4076 17.248 92.6023 16.544C93.8183 15.8187 95.237 15.456 96.8583 15.456C98.4583 15.456 99.7916 15.7973 100.858 16.48C101.946 17.1627 102.757 18.1227 103.29 19.36C103.845 20.576 104.122 21.9947 104.122 23.616V24.736H92.7623V22.336H100.602L100.058 22.784C100.058 21.44 99.781 20.4267 99.2263 19.744C98.693 19.04 97.9143 18.688 96.8903 18.688C95.7596 18.688 94.885 19.104 94.2663 19.936C93.669 20.768 93.3703 21.9627 93.3703 23.52V24.032C93.3703 25.6107 93.7543 26.784 94.5223 27.552C95.3116 28.32 96.4423 28.704 97.9143 28.704C98.789 28.704 99.6103 28.5973 100.378 28.384C101.168 28.1493 101.914 27.7867 102.618 27.296L103.962 30.496C103.152 31.0933 102.213 31.552 101.146 31.872C100.101 32.192 98.9703 32.352 97.7543 32.352ZM107.156 32V20.064C107.156 19.36 107.135 18.6453 107.092 17.92C107.071 17.1947 107.017 16.48 106.932 15.776H111.572L112.116 20.512H111.38C111.593 19.36 111.935 18.4107 112.404 17.664C112.895 16.9173 113.492 16.3627 114.196 16C114.921 15.6373 115.743 15.456 116.66 15.456C117.065 15.456 117.385 15.4773 117.62 15.52C117.855 15.5413 118.089 15.5947 118.324 15.68L118.292 19.936C117.844 19.744 117.46 19.6267 117.14 19.584C116.841 19.52 116.457 19.488 115.988 19.488C115.092 19.488 114.345 19.6587 113.748 20C113.172 20.3413 112.735 20.8427 112.436 21.504C112.159 22.1653 112.02 22.9653 112.02 23.904V32H107.156ZM127.743 32.352C126.015 32.352 124.511 32.0107 123.231 31.328C121.972 30.624 120.991 29.6427 120.287 28.384C119.604 27.1253 119.263 25.6213 119.263 23.872C119.263 22.144 119.604 20.6507 120.287 19.392C120.991 18.1333 121.972 17.1627 123.231 16.48C124.511 15.7973 126.015 15.456 127.743 15.456C129.471 15.456 130.975 15.7973 132.255 16.48C133.535 17.1627 134.516 18.1333 135.199 19.392C135.903 20.6507 136.255 22.144 136.255 23.872C136.255 25.6213 135.903 27.1253 135.199 28.384C134.516 29.6427 133.535 30.624 132.255 31.328C130.975 32.0107 129.471 32.352 127.743 32.352ZM127.743 28.704C128.852 28.704 129.727 28.3093 130.367 27.52C131.028 26.7307 131.359 25.5147 131.359 23.872C131.359 22.2293 131.028 21.024 130.367 20.256C129.727 19.488 128.852 19.104 127.743 19.104C126.634 19.104 125.748 19.488 125.087 20.256C124.447 21.024 124.127 22.2293 124.127 23.872C124.127 25.5147 124.447 26.7307 125.087 27.52C125.748 28.3093 126.634 28.704 127.743 28.704Z" fill="#131318"/>
<path d="M153.943 32V13.504H146.775V9.44H166.103V13.504H158.935V32H153.943ZM165.937 32V20.064C165.937 19.36 165.916 18.6453 165.873 17.92C165.852 17.1947 165.799 16.48 165.713 15.776H170.353L170.897 20.512H170.161C170.375 19.36 170.716 18.4107 171.185 17.664C171.676 16.9173 172.273 16.3627 172.977 16C173.703 15.6373 174.524 15.456 175.441 15.456C175.847 15.456 176.167 15.4773 176.401 15.52C176.636 15.5413 176.871 15.5947 177.105 15.68L177.073 19.936C176.625 19.744 176.241 19.6267 175.921 19.584C175.623 19.52 175.239 19.488 174.769 19.488C173.873 19.488 173.127 19.6587 172.529 20C171.953 20.3413 171.516 20.8427 171.217 21.504C170.94 22.1653 170.801 22.9653 170.801 23.904V32H165.937ZM185.273 32.352C183.865 32.352 182.628 32.0107 181.561 31.328C180.495 30.6453 179.663 29.6747 179.065 28.416C178.468 27.1573 178.169 25.6427 178.169 23.872C178.169 22.1227 178.468 20.6187 179.065 19.36C179.663 18.1013 180.495 17.1413 181.561 16.48C182.628 15.7973 183.865 15.456 185.273 15.456C186.575 15.456 187.737 15.776 188.761 16.416C189.807 17.0347 190.489 17.8773 190.809 18.944H190.457L190.841 15.776H195.481C195.417 16.48 195.353 17.1947 195.289 17.92C195.247 18.624 195.225 19.3173 195.225 20V32H190.425L190.393 28.96H190.777C190.436 29.984 189.753 30.8053 188.729 31.424C187.705 32.0427 186.553 32.352 185.273 32.352ZM186.745 28.704C187.855 28.704 188.751 28.3093 189.433 27.52C190.116 26.7307 190.457 25.5147 190.457 23.872C190.457 22.2293 190.116 21.024 189.433 20.256C188.751 19.488 187.855 19.104 186.745 19.104C185.636 19.104 184.74 19.488 184.057 20.256C183.375 21.024 183.033 22.2293 183.033 23.872C183.033 25.5147 183.364 26.7307 184.025 27.52C184.708 28.3093 185.615 28.704 186.745 28.704ZM203.736 32L196.728 15.776H201.816L206.456 27.552H205.4L210.2 15.776H214.968L207.896 32H203.736ZM224.442 32.352C221.626 32.352 219.428 31.5947 217.85 30.08C216.271 28.5653 215.482 26.5067 215.482 23.904C215.482 22.2187 215.812 20.7467 216.474 19.488C217.156 18.2293 218.095 17.248 219.29 16.544C220.506 15.8187 221.924 15.456 223.546 15.456C225.146 15.456 226.479 15.7973 227.546 16.48C228.634 17.1627 229.444 18.1227 229.978 19.36C230.532 20.576 230.81 21.9947 230.81 23.616V24.736H219.45V22.336H227.29L226.746 22.784C226.746 21.44 226.468 20.4267 225.914 19.744C225.38 19.04 224.602 18.688 223.578 18.688C222.447 18.688 221.572 19.104 220.954 19.936C220.356 20.768 220.058 21.9627 220.058 23.52V24.032C220.058 25.6107 220.442 26.784 221.21 27.552C221.999 28.32 223.13 28.704 224.602 28.704C225.476 28.704 226.298 28.5973 227.066 28.384C227.855 28.1493 228.602 27.7867 229.306 27.296L230.65 30.496C229.839 31.0933 228.9 31.552 227.834 31.872C226.788 32.192 225.658 32.352 224.442 32.352ZM233.876 32V8.448H238.708V32H233.876Z" fill="#FF5400"/>
<g clip-path="url(#clip0_14_903)">
<path d="M39.0105 15.8875L36.4539 15.8875C35.7003 13.7652 34.3722 11.8938 32.6177 10.4817C30.8633 9.06968 28.7512 8.17239 26.5169 7.88981C24.2825 7.60723 22.0136 7.95045 19.9628 8.88126C17.9121 9.81206 16.1599 11.2939 14.9016 13.1617C14.6725 13.51 14.5423 13.9139 14.5248 14.3303C14.5072 14.7468 14.6031 15.1602 14.8021 15.5265C15.0011 15.8927 15.2957 16.1981 15.6547 16.4101C16.0136 16.622 16.4233 16.7325 16.8402 16.7299L19.9301 16.7299L19.9301 23.2702L16.8917 23.2702C16.4725 23.2684 16.0608 23.3808 15.7007 23.5954C15.3406 23.8099 15.0458 24.1186 14.848 24.4881C14.6502 24.8577 14.5568 25.2741 14.5779 25.6928C14.599 26.1114 14.7338 26.5164 14.9678 26.8641C16.2346 28.7053 17.9842 30.1618 20.0245 31.0737C22.0649 31.9856 24.3171 32.3176 26.5338 32.0333C28.7505 31.749 30.8459 30.8594 32.5901 29.4621C34.3343 28.0648 35.6597 26.2139 36.4208 24.1126L38.9958 24.1126C38.1004 27.131 36.2537 29.7791 33.7307 31.6624C31.2077 33.5457 28.1437 34.5632 24.9954 34.5632C17.0425 34.5632 6.58083 27.0002 1.33897 22.7589C0.922886 22.4198 0.587517 21.9924 0.357193 21.5075C0.126869 21.0227 0.00736635 20.4927 0.00736635 19.9559C0.00736636 19.4192 0.126869 18.8891 0.357193 18.4043C0.587517 17.9195 0.922886 17.492 1.33897 17.1529C6.54405 12.9116 16.9321 5.3633 25.0064 5.3633C28.165 5.36665 31.2372 6.3942 33.7622 8.29175C36.2872 10.1893 38.1287 12.8545 39.0105 15.8875Z" fill="#FF5400"/>
<path d="M3.69322 18.4514C3.36452 18.556 3.07758 18.7624 2.87392 19.0408C2.67025 19.3192 2.5604 19.6551 2.56024 20.0001C2.5604 20.345 2.67025 20.681 2.87392 20.9593C3.07758 21.2377 3.36452 21.4441 3.69322 21.5487L6.01435 23.2703L39.5402 23.2703C40.5847 23.2704 41.6256 23.1469 42.6412 22.9024C43.6385 22.6551 44.6011 22.2844 45.5067 21.7989C45.8539 21.6416 46.1485 21.3876 46.3551 21.0673C46.5616 20.747 46.6715 20.3739 46.6715 19.9927C46.6715 19.6116 46.5616 19.2385 46.3551 18.9181C46.1485 18.5978 45.8539 18.3438 45.5067 18.1866C44.6011 17.7011 43.6385 17.3304 42.6412 17.083C41.6256 16.8385 40.5847 16.7151 39.5402 16.7152L6.01435 16.7152L3.69322 18.4514Z" fill="#FF5400"/>
<path d="M34.7729 17.6348L22.1078 1.03738C21.8603 0.714485 21.5417 0.45294 21.1768 0.273043C20.812 0.0931471 20.4105 -0.000269107 20.0037 4.17855e-05L18.7346 4.17704e-05L24.0868 17.6348L34.7729 17.6348Z" fill="#FF5400"/>
<path d="M34.7729 22.3653L22.1078 38.9627C21.8603 39.2856 21.5417 39.5471 21.1768 39.727C20.812 39.9069 20.4105 40.0003 20.0037 40L18.7346 40L24.0868 22.3653L34.7729 22.3653Z" fill="#FF5400"/>
<path d="M20.9307 37.0167C20.9297 36.7217 21.0449 36.4381 21.2515 36.2274C21.458 36.0168 21.7392 35.8959 22.0342 35.8911L24.0868 35.8911C24.3854 35.8911 24.6717 36.0097 24.8828 36.2208C25.0938 36.4319 25.2124 36.7182 25.2124 37.0167C25.2124 37.3152 25.0938 37.6015 24.8828 37.8126C24.6717 38.0237 24.3854 38.1423 24.0868 38.1423L22.0342 38.1423C21.7392 38.1375 21.458 38.0167 21.2515 37.806C21.0449 37.5953 20.9297 37.3117 20.9307 37.0167Z" fill="#FF5400"/>
<path d="M20.9307 2.98327C20.9297 2.68823 21.0449 2.40467 21.2515 2.194C21.458 1.98332 21.7392 1.86248 22.0342 1.85765L24.0868 1.85765C24.3854 1.85765 24.6717 1.97625 24.8828 2.18734C25.0938 2.39843 25.2124 2.68473 25.2124 2.98327C25.2124 3.2818 25.0938 3.56811 24.8828 3.7792C24.6717 3.9903 24.3854 4.10889 24.0868 4.10889L22.0342 4.10889C21.7392 4.10405 21.458 3.98321 21.2515 3.77254C21.0449 3.56186 20.9297 3.2783 20.9307 2.98327Z" fill="#FF5400"/>
<path d="M28.1516 27.3974C28.1491 27.248 28.1764 27.0997 28.2319 26.961C28.2874 26.8223 28.3699 26.696 28.4747 26.5896C28.5794 26.4831 28.7044 26.3985 28.8421 26.3408C28.9799 26.2831 29.1278 26.2534 29.2772 26.2534L31.3261 26.2534C31.6246 26.2534 31.9109 26.372 32.122 26.5831C32.3331 26.7942 32.4517 27.0805 32.4517 27.379C32.4517 27.6776 32.3331 27.9639 32.122 28.175C31.9109 28.3861 31.6246 28.5046 31.3261 28.5046L29.2772 28.5046C28.9818 28.5047 28.6983 28.3886 28.4877 28.1815C28.2771 27.9743 28.1564 27.6927 28.1516 27.3974Z" fill="#FF5400"/>
<path d="M28.1516 12.6027C28.1516 12.3041 28.2702 12.0178 28.4812 11.8067C28.6923 11.5956 28.9786 11.477 29.2772 11.477L31.3261 11.477C31.6246 11.477 31.9109 11.5956 32.122 11.8067C32.3331 12.0178 32.4517 12.3041 32.4517 12.6027C32.4517 12.9012 32.3331 13.1875 32.122 13.3986C31.9109 13.6097 31.6246 13.7283 31.3261 13.7283L29.2772 13.7283C28.9786 13.7283 28.6923 13.6097 28.4812 13.3986C28.2702 13.1875 28.1516 12.9012 28.1516 12.6027Z" fill="#FF5400"/>
</g>
<defs>
<clipPath id="clip0_14_903">
<rect width="40" height="46.6728" fill="white" transform="matrix(1.19249e-08 -1 -1 -1.19249e-08 46.6728 40)"/>
</clipPath>
</defs>
</svg>
